# 3ds Max Wavefront OBJ Exporter v0.99 - (c)2007 guruware
# File Created: 09.12.2025 21:04:09

mtllib Grafiti3.mtl

#
# object Box004
#

v  260.2502 -17.6743 -7.8184
v  491.4369 89.6216 -7.8184
v  549.4875 89.6216 -7.8184
v  318.3008 -17.6743 -7.8184
v  260.2502 8.9511 50.2323
v  318.3008 -17.6743 50.2323
v  549.4875 89.6216 50.2323
v  430.3936 89.6216 50.2323
# 8 vertices

vn -0.7985 -0.3826 -0.4647
vn -0.0754 0.7093 -0.7009
vn 0.8219 0.1814 -0.5400
vn 0.1616 -0.7322 -0.6617
vn -0.8400 0.1979 0.5053
vn 0.0018 -0.7815 0.6239
vn 0.8219 0.1814 0.5400
vn -0.2706 0.8012 0.5338
# 8 vertex normals

vt 1.0000 0.0000 0.0000
vt 1.0000 1.0000 0.0000
vt 0.0000 1.0000 0.0000
vt 0.0000 0.0000 0.0000
# 4 texture coords

o Box004
g Box004
usemtl Material__107
s 2
f 1/1/1 2/2/2 3/3/3 4/4/4 
s 4
f 5/4/5 6/1/6 7/2/7 8/3/8 
s 8
f 1/4/1 4/1/4 6/2/6 5/3/5 
s 16
f 4/4/4 3/1/3 7/2/7 6/3/6 
s 32
f 3/4/3 2/1/2 8/2/8 7/3/7 
s 64
f 2/4/2 1/1/1 5/2/5 8/3/8 
# 6 polygons

#
# object Box003
#

v  260.0189 -18.0407 -7.8184
v  260.0189 40.0100 -7.8184
v  318.0695 71.0755 -7.8184
v  318.0695 -18.0407 -7.8184
v  260.0189 -18.0407 50.2323
v  318.0695 -18.0407 50.2323
v  318.0695 71.0755 50.2323
v  260.0189 40.0100 50.2323
# 8 vertices

vn -0.5774 -0.5774 -0.5774
vn -0.6813 0.4081 -0.6077
vn 0.4272 0.7131 -0.5558
vn 0.5774 -0.5774 -0.5774
vn -0.5774 -0.5774 0.5774
vn 0.5774 -0.5774 0.5774
vn 0.4273 0.7130 0.5559
vn -0.6813 0.4082 0.6076
# 8 vertex normals

vt 1.0000 0.0000 0.0000
vt 1.0000 1.0000 0.0000
vt 0.0000 1.0000 0.0000
vt 0.0000 0.0000 0.0000
# 4 texture coords

o Box003
g Box003
usemtl Material__107
s 2
f 9/5/9 10/6/10 11/7/11 12/8/12 
s 4
f 13/8/13 14/5/14 15/6/15 16/7/16 
s 8
f 9/8/9 12/5/12 14/6/14 13/7/13 
s 16
f 12/8/12 11/5/11 15/6/15 14/7/14 
s 32
f 11/8/11 10/5/10 16/6/16 15/7/15 
s 64
f 10/8/10 9/5/9 13/6/13 16/7/16 
# 6 polygons

